<mxfile host="app.diagrams.net" modified="2023-05-31T17:45:06.855Z" agent="Mozilla/5.0 (Windows NT 10.0; Win64; x64) AppleWebKit/537.36 (KHTML, like Gecko) Chrome/113.0.0.0 Safari/537.36" etag="P_-3cqjLtOhcfmL245-j" version="21.3.5" type="github">
  <diagram name="Page-1" id="W36LRVmOK_E-U8wfmszz">
    <mxGraphModel dx="-890" dy="741" grid="1" gridSize="10" guides="1" tooltips="1" connect="1" arrows="1" fold="1" page="1" pageScale="1" pageWidth="827" pageHeight="1169" math="0" shadow="0">
      <root>
        <mxCell id="0" />
        <mxCell id="1" parent="0" />
        <mxCell id="EbAvPrY-3yhoAmRdnEsD-1" value="Pegawai" style="swimlane;whiteSpace=wrap" vertex="1" parent="1">
          <mxGeometry x="3030" y="120" width="240" height="640" as="geometry" />
        </mxCell>
        <mxCell id="EbAvPrY-3yhoAmRdnEsD-2" value="" style="ellipse;shape=startState;fillColor=#000000;strokeColor=#000000;" vertex="1" parent="EbAvPrY-3yhoAmRdnEsD-1">
          <mxGeometry x="105" y="40" width="30" height="30" as="geometry" />
        </mxCell>
        <mxCell id="EbAvPrY-3yhoAmRdnEsD-3" value="" style="edgeStyle=elbowEdgeStyle;elbow=horizontal;verticalAlign=bottom;endArrow=open;endSize=8;strokeColor=#000000;endFill=1;rounded=0;entryX=0.5;entryY=0;entryDx=0;entryDy=0;entryPerimeter=0;" edge="1" parent="EbAvPrY-3yhoAmRdnEsD-1">
          <mxGeometry x="100" y="40" as="geometry">
            <mxPoint x="115" y="100" as="targetPoint" />
            <mxPoint x="114.71428571428578" y="100" as="sourcePoint" />
          </mxGeometry>
        </mxCell>
        <mxCell id="EbAvPrY-3yhoAmRdnEsD-4" value="" style="edgeStyle=elbowEdgeStyle;elbow=horizontal;verticalAlign=bottom;endArrow=open;endSize=8;strokeColor=#000000;endFill=1;rounded=0;entryX=0.5;entryY=0;entryDx=0;entryDy=0;entryPerimeter=0;" edge="1" parent="EbAvPrY-3yhoAmRdnEsD-1" source="EbAvPrY-3yhoAmRdnEsD-2">
          <mxGeometry x="100" y="40" as="geometry">
            <mxPoint x="120" y="100" as="targetPoint" />
            <mxPoint x="155" y="190" as="sourcePoint" />
          </mxGeometry>
        </mxCell>
        <mxCell id="EbAvPrY-3yhoAmRdnEsD-5" value="Login" style="rounded=1;whiteSpace=wrap;html=1;arcSize=40;fontColor=#000000;fillColor=#FFFFFF;strokeColor=#000000;" vertex="1" parent="EbAvPrY-3yhoAmRdnEsD-1">
          <mxGeometry x="80" y="100" width="80" height="40" as="geometry" />
        </mxCell>
        <mxCell id="EbAvPrY-3yhoAmRdnEsD-6" value="Pilih Menu Pemesanan" style="rounded=1;whiteSpace=wrap;html=1;arcSize=40;fontColor=#000000;fillColor=#FFFFFF;strokeColor=#000000;" vertex="1" parent="EbAvPrY-3yhoAmRdnEsD-1">
          <mxGeometry x="80" y="240" width="80" height="40" as="geometry" />
        </mxCell>
        <mxCell id="EbAvPrY-3yhoAmRdnEsD-7" value="" style="edgeStyle=orthogonalEdgeStyle;rounded=0;orthogonalLoop=1;jettySize=auto;html=1;" edge="1" parent="EbAvPrY-3yhoAmRdnEsD-1" source="EbAvPrY-3yhoAmRdnEsD-8" target="EbAvPrY-3yhoAmRdnEsD-9">
          <mxGeometry relative="1" as="geometry" />
        </mxCell>
        <mxCell id="EbAvPrY-3yhoAmRdnEsD-8" value="Konfirmasi Pembayaran" style="rounded=1;whiteSpace=wrap;html=1;arcSize=40;fontColor=#000000;fillColor=#FFFFFF;strokeColor=#000000;" vertex="1" parent="EbAvPrY-3yhoAmRdnEsD-1">
          <mxGeometry x="80" y="320" width="80" height="40" as="geometry" />
        </mxCell>
        <mxCell id="EbAvPrY-3yhoAmRdnEsD-9" value="Submit" style="rounded=1;whiteSpace=wrap;html=1;arcSize=40;fontColor=#000000;fillColor=#FFFFFF;strokeColor=#000000;" vertex="1" parent="EbAvPrY-3yhoAmRdnEsD-1">
          <mxGeometry x="80" y="390" width="80" height="40" as="geometry" />
        </mxCell>
        <mxCell id="EbAvPrY-3yhoAmRdnEsD-10" value="Sistem" style="swimlane;whiteSpace=wrap;startSize=23;" vertex="1" parent="1">
          <mxGeometry x="3270" y="120" width="240" height="640" as="geometry" />
        </mxCell>
        <mxCell id="EbAvPrY-3yhoAmRdnEsD-11" value="Ya" style="edgeStyle=orthogonalEdgeStyle;rounded=0;orthogonalLoop=1;jettySize=auto;html=1;entryX=0.5;entryY=0;entryDx=0;entryDy=0;exitX=0.5;exitY=1;exitDx=0;exitDy=0;" edge="1" parent="EbAvPrY-3yhoAmRdnEsD-10" source="EbAvPrY-3yhoAmRdnEsD-14">
          <mxGeometry x="-0.3333" relative="1" as="geometry">
            <mxPoint x="135" y="180" as="targetPoint" />
            <mxPoint as="offset" />
            <mxPoint x="129.9999999999999" y="155" as="sourcePoint" />
          </mxGeometry>
        </mxCell>
        <mxCell id="EbAvPrY-3yhoAmRdnEsD-12" value="Detail Pemesanan" style="strokeWidth=2;html=1;shape=mxgraph.flowchart.decision;whiteSpace=wrap;" vertex="1" parent="EbAvPrY-3yhoAmRdnEsD-10">
          <mxGeometry x="95" y="302.5" width="80" height="80" as="geometry" />
        </mxCell>
        <mxCell id="EbAvPrY-3yhoAmRdnEsD-13" value="" style="edgeStyle=orthogonalEdgeStyle;rounded=0;orthogonalLoop=1;jettySize=auto;html=1;" edge="1" parent="EbAvPrY-3yhoAmRdnEsD-10" target="EbAvPrY-3yhoAmRdnEsD-12">
          <mxGeometry relative="1" as="geometry">
            <mxPoint x="135.00000000000023" y="280" as="sourcePoint" />
          </mxGeometry>
        </mxCell>
        <mxCell id="EbAvPrY-3yhoAmRdnEsD-14" value="Verifikasi" style="rhombus;whiteSpace=wrap;html=1;" vertex="1" parent="EbAvPrY-3yhoAmRdnEsD-10">
          <mxGeometry x="95" y="80" width="80" height="80" as="geometry" />
        </mxCell>
        <mxCell id="EbAvPrY-3yhoAmRdnEsD-15" value="Validasi" style="rhombus;whiteSpace=wrap;html=1;" vertex="1" parent="EbAvPrY-3yhoAmRdnEsD-10">
          <mxGeometry x="20" y="362.5" width="80" height="80" as="geometry" />
        </mxCell>
        <mxCell id="EbAvPrY-3yhoAmRdnEsD-16" value="Tampil Dashboard" style="rounded=1;whiteSpace=wrap;html=1;arcSize=40;fontColor=#000000;fillColor=#FFFFFF;strokeColor=#000000;" vertex="1" parent="EbAvPrY-3yhoAmRdnEsD-10">
          <mxGeometry x="95" y="180" width="80" height="40" as="geometry" />
        </mxCell>
        <mxCell id="EbAvPrY-3yhoAmRdnEsD-17" value="Tampil Data Pemesanan" style="rounded=1;whiteSpace=wrap;html=1;arcSize=40;fontColor=#000000;fillColor=#FFFFFF;strokeColor=#000000;" vertex="1" parent="EbAvPrY-3yhoAmRdnEsD-10">
          <mxGeometry x="95" y="240" width="80" height="40" as="geometry" />
        </mxCell>
        <mxCell id="EbAvPrY-3yhoAmRdnEsD-18" value="Lihat Data Pemesanan" style="rounded=1;whiteSpace=wrap;html=1;arcSize=40;fontColor=#000000;fillColor=#FFFFFF;strokeColor=#000000;" vertex="1" parent="EbAvPrY-3yhoAmRdnEsD-10">
          <mxGeometry x="-160" y="522.5" width="80" height="40" as="geometry" />
        </mxCell>
        <mxCell id="EbAvPrY-3yhoAmRdnEsD-19" value="" style="ellipse;shape=endState;fillColor=#000000;strokeColor=#000000;" vertex="1" parent="EbAvPrY-3yhoAmRdnEsD-10">
          <mxGeometry x="-135" y="582.5" width="30" height="30" as="geometry" />
        </mxCell>
        <mxCell id="EbAvPrY-3yhoAmRdnEsD-20" value="" style="edgeStyle=orthogonalEdgeStyle;rounded=0;orthogonalLoop=1;jettySize=auto;html=1;" edge="1" parent="EbAvPrY-3yhoAmRdnEsD-10">
          <mxGeometry relative="1" as="geometry">
            <mxPoint x="135" y="382.4999999999998" as="sourcePoint" />
            <mxPoint x="-80" y="542.5" as="targetPoint" />
            <Array as="points">
              <mxPoint x="135" y="542.5" />
            </Array>
          </mxGeometry>
        </mxCell>
        <mxCell id="EbAvPrY-3yhoAmRdnEsD-21" value="Tidak" style="edgeLabel;html=1;align=center;verticalAlign=middle;resizable=0;points=[];" vertex="1" connectable="0" parent="EbAvPrY-3yhoAmRdnEsD-20">
          <mxGeometry x="-0.1961" y="2" relative="1" as="geometry">
            <mxPoint x="-2" y="-71" as="offset" />
          </mxGeometry>
        </mxCell>
        <mxCell id="EbAvPrY-3yhoAmRdnEsD-22" value="" style="edgeStyle=orthogonalEdgeStyle;rounded=0;orthogonalLoop=1;jettySize=auto;html=1;" edge="1" parent="EbAvPrY-3yhoAmRdnEsD-10" target="EbAvPrY-3yhoAmRdnEsD-23">
          <mxGeometry relative="1" as="geometry">
            <mxPoint x="60" y="442.4999999999998" as="sourcePoint" />
          </mxGeometry>
        </mxCell>
        <mxCell id="EbAvPrY-3yhoAmRdnEsD-23" value="Tampil Sukses Alert" style="rounded=1;whiteSpace=wrap;html=1;arcSize=40;fontColor=#000000;fillColor=#FFFFFF;strokeColor=#000000;" vertex="1" parent="EbAvPrY-3yhoAmRdnEsD-10">
          <mxGeometry x="20" y="470" width="80" height="40" as="geometry" />
        </mxCell>
        <mxCell id="EbAvPrY-3yhoAmRdnEsD-24" value="" style="edgeStyle=orthogonalEdgeStyle;rounded=0;orthogonalLoop=1;jettySize=auto;html=1;exitX=0;exitY=0.5;exitDx=0;exitDy=0;entryX=0.5;entryY=0;entryDx=0;entryDy=0;" edge="1" parent="EbAvPrY-3yhoAmRdnEsD-10" source="EbAvPrY-3yhoAmRdnEsD-23" target="EbAvPrY-3yhoAmRdnEsD-18">
          <mxGeometry relative="1" as="geometry">
            <mxPoint x="20" y="500" as="sourcePoint" />
            <mxPoint x="-80" y="500" as="targetPoint" />
          </mxGeometry>
        </mxCell>
        <mxCell id="EbAvPrY-3yhoAmRdnEsD-25" value="" style="edgeStyle=orthogonalEdgeStyle;rounded=0;orthogonalLoop=1;jettySize=auto;html=1;" edge="1" parent="EbAvPrY-3yhoAmRdnEsD-10" source="EbAvPrY-3yhoAmRdnEsD-18" target="EbAvPrY-3yhoAmRdnEsD-19">
          <mxGeometry relative="1" as="geometry" />
        </mxCell>
        <mxCell id="EbAvPrY-3yhoAmRdnEsD-26" style="edgeStyle=orthogonalEdgeStyle;rounded=0;orthogonalLoop=1;jettySize=auto;html=1;entryX=0;entryY=0.5;entryDx=0;entryDy=0;exitX=1;exitY=0.5;exitDx=0;exitDy=0;" edge="1" parent="1" target="EbAvPrY-3yhoAmRdnEsD-14">
          <mxGeometry relative="1" as="geometry">
            <mxPoint x="3190" y="240" as="sourcePoint" />
            <mxPoint x="3350" y="230" as="targetPoint" />
          </mxGeometry>
        </mxCell>
        <mxCell id="EbAvPrY-3yhoAmRdnEsD-27" style="edgeStyle=orthogonalEdgeStyle;rounded=0;orthogonalLoop=1;jettySize=auto;html=1;entryX=0.5;entryY=0;entryDx=0;entryDy=0;exitX=0;exitY=0.5;exitDx=0;exitDy=0;" edge="1" parent="1">
          <mxGeometry relative="1" as="geometry">
            <mxPoint x="3365" y="320" as="sourcePoint" />
            <mxPoint x="3150" y="360" as="targetPoint" />
            <Array as="points">
              <mxPoint x="3350" y="320" />
              <mxPoint x="3150" y="320" />
            </Array>
          </mxGeometry>
        </mxCell>
        <mxCell id="EbAvPrY-3yhoAmRdnEsD-28" value="Reserve Management" style="text;html=1;align=center;verticalAlign=middle;resizable=0;points=[];autosize=1;strokeColor=none;fillColor=none;" vertex="1" parent="1">
          <mxGeometry x="3200" y="80" width="140" height="30" as="geometry" />
        </mxCell>
        <mxCell id="EbAvPrY-3yhoAmRdnEsD-29" style="edgeStyle=orthogonalEdgeStyle;rounded=0;orthogonalLoop=1;jettySize=auto;html=1;entryX=0;entryY=0.5;entryDx=0;entryDy=0;" edge="1" parent="1">
          <mxGeometry relative="1" as="geometry">
            <mxPoint x="3190" y="380.0000000000001" as="sourcePoint" />
            <mxPoint x="3365" y="380" as="targetPoint" />
          </mxGeometry>
        </mxCell>
        <mxCell id="EbAvPrY-3yhoAmRdnEsD-30" value="" style="endArrow=classic;html=1;rounded=0;entryX=1;entryY=0.5;entryDx=0;entryDy=0;exitX=1;exitY=0.5;exitDx=0;exitDy=0;" edge="1" parent="1" source="EbAvPrY-3yhoAmRdnEsD-14" target="EbAvPrY-3yhoAmRdnEsD-2">
          <mxGeometry relative="1" as="geometry">
            <mxPoint x="3450" y="240" as="sourcePoint" />
            <mxPoint x="3580" y="322" as="targetPoint" />
            <Array as="points">
              <mxPoint x="3480" y="240" />
              <mxPoint x="3480" y="175" />
            </Array>
          </mxGeometry>
        </mxCell>
        <mxCell id="EbAvPrY-3yhoAmRdnEsD-31" value="Tidak" style="edgeLabel;resizable=0;html=1;align=center;verticalAlign=middle;" connectable="0" vertex="1" parent="EbAvPrY-3yhoAmRdnEsD-30">
          <mxGeometry relative="1" as="geometry">
            <mxPoint x="90" y="65" as="offset" />
          </mxGeometry>
        </mxCell>
        <mxCell id="EbAvPrY-3yhoAmRdnEsD-32" style="edgeStyle=orthogonalEdgeStyle;rounded=0;orthogonalLoop=1;jettySize=auto;html=1;entryX=1;entryY=0.5;entryDx=0;entryDy=0;" edge="1" parent="1" source="EbAvPrY-3yhoAmRdnEsD-12">
          <mxGeometry relative="1" as="geometry">
            <mxPoint x="3190" y="462.5" as="targetPoint" />
          </mxGeometry>
        </mxCell>
        <mxCell id="EbAvPrY-3yhoAmRdnEsD-33" value="Ya" style="edgeLabel;html=1;align=center;verticalAlign=middle;resizable=0;points=[];" vertex="1" connectable="0" parent="EbAvPrY-3yhoAmRdnEsD-32">
          <mxGeometry x="-0.9086" y="-1" relative="1" as="geometry">
            <mxPoint x="-7" y="1" as="offset" />
          </mxGeometry>
        </mxCell>
        <mxCell id="EbAvPrY-3yhoAmRdnEsD-34" value="" style="edgeStyle=orthogonalEdgeStyle;rounded=0;orthogonalLoop=1;jettySize=auto;html=1;" edge="1" parent="1" target="EbAvPrY-3yhoAmRdnEsD-15">
          <mxGeometry relative="1" as="geometry">
            <mxPoint x="3190" y="522.5" as="sourcePoint" />
          </mxGeometry>
        </mxCell>
        <mxCell id="EbAvPrY-3yhoAmRdnEsD-35" value="Tidak" style="edgeStyle=orthogonalEdgeStyle;rounded=0;orthogonalLoop=1;jettySize=auto;html=1;endArrow=classic;endFill=1;strokeColor=default;endSize=6;startSize=6;jumpSize=6;entryX=1;entryY=0.5;entryDx=0;entryDy=0;" edge="1" parent="1" source="EbAvPrY-3yhoAmRdnEsD-15">
          <mxGeometry x="-0.873" relative="1" as="geometry">
            <mxPoint x="3190" y="462.5" as="targetPoint" />
            <Array as="points">
              <mxPoint x="3330" y="463" />
              <mxPoint x="3190" y="463" />
            </Array>
            <mxPoint as="offset" />
          </mxGeometry>
        </mxCell>
      </root>
    </mxGraphModel>
  </diagram>
</mxfile>
